<svg width="93" height="92" viewBox="0 0 93 92" fill="none" xmlns="http://www.w3.org/2000/svg">
<g filter="url(#filter0_d_82_161)">
<circle cx="46.8164" cy="36" r="31" fill="white"/>
</g>
<path d="M40.4308 31.457C41.4246 30.3796 42.9283 29.8335 44.8996 29.8335H45.608V31.8303L45.0385 31.9443C44.0681 32.1384 43.393 32.5202 43.0318 33.0805C42.8433 33.3823 42.7364 33.7279 42.7215 34.0835H44.8996C45.0875 34.0835 45.2677 34.1581 45.4005 34.291C45.5333 34.4238 45.608 34.604 45.608 34.7918V39.7502C45.608 40.5315 44.9726 41.1668 44.1913 41.1668H39.9413C39.7534 41.1668 39.5733 41.0922 39.4404 40.9594C39.3076 40.8265 39.233 40.6464 39.233 40.4585V36.9168L39.2351 34.8492C39.2287 34.7706 39.0941 32.9077 40.4308 31.457ZM51.983 41.1668H47.733C47.5451 41.1668 47.3649 41.0922 47.2321 40.9594C47.0993 40.8265 47.0246 40.6464 47.0246 40.4585V36.9168L47.0268 34.8492C47.0204 34.7706 46.8858 32.9077 48.2224 31.457C49.2162 30.3796 50.72 29.8335 52.6913 29.8335H53.3996V31.8303L52.8301 31.9443C51.8597 32.1384 51.1847 32.5202 50.8234 33.0805C50.6349 33.3823 50.528 33.7279 50.5132 34.0835H52.6913C52.8792 34.0835 53.0593 34.1581 53.1922 34.291C53.325 34.4238 53.3996 34.604 53.3996 34.7918V39.7502C53.3996 40.5315 52.7643 41.1668 51.983 41.1668Z" fill="#0A72AD"/>
<defs>
<filter id="filter0_d_82_161" x="0.816406" y="0" width="92" height="92" filterUnits="userSpaceOnUse" color-interpolation-filters="sRGB">
<feFlood flood-opacity="0" result="BackgroundImageFix"/>
<feColorMatrix in="SourceAlpha" type="matrix" values="0 0 0 0 0 0 0 0 0 0 0 0 0 0 0 0 0 0 127 0" result="hardAlpha"/>
<feOffset dy="10"/>
<feGaussianBlur stdDeviation="7.5"/>
<feColorMatrix type="matrix" values="0 0 0 0 0.137255 0 0 0 0 0.529412 0 0 0 0 0.752941 0 0 0 0.15 0"/>
<feBlend mode="normal" in2="BackgroundImageFix" result="effect1_dropShadow_82_161"/>
<feBlend mode="normal" in="SourceGraphic" in2="effect1_dropShadow_82_161" result="shape"/>
</filter>
</defs>
</svg>
