<svg width="181" height="45" viewBox="0 0 181 45" fill="none" xmlns="http://www.w3.org/2000/svg">
<path d="M22.6851 35.9162L1.3292 23.5796C0.97995 23.3857 0.553093 23.6314 0.553093 24.0322V32.8902C0.553093 33.3945 0.82473 33.8471 1.25159 34.1058L19.2572 44.5025C19.6841 44.7483 20.2274 44.7483 20.6542 44.5025L25.3626 41.7869V41.774L31.1834 38.4119V38.4249L35.4908 35.9421C39.0221 33.8989 39.242 28.8299 35.84 26.5798C35.7624 26.5281 35.6978 26.4893 35.6202 26.4375L12.4663 13.0536C12.4534 13.0407 12.4275 13.0277 12.4146 13.0148C9.69821 11.4242 9.73701 7.49311 12.4663 5.91549L14.5489 4.71288C14.6394 6.52326 15.6354 8.17848 17.2264 9.08366L38.5823 21.4072C38.9315 21.6012 39.3584 21.3554 39.3584 20.9546L39.3584 12.1096C39.3584 11.6053 39.0868 11.1527 38.6599 10.8941L20.6542 0.497265C20.2274 0.251563 19.6841 0.251563 19.2572 0.497265L17.1747 1.69988L6.56791 7.8164L4.30427 9.13539C0.772991 11.1785 0.604832 16.2864 4.08437 18.4459C4.14905 18.4848 4.22666 18.5365 4.29134 18.5753L27.4581 31.9463C27.471 31.9593 27.4969 31.9722 27.5098 31.9851C30.2133 33.5756 30.1745 37.5067 27.4581 39.0715L25.3626 40.287C25.2591 38.4637 24.2631 36.8214 22.6851 35.9162Z" fill="#268FCA"/>
<path d="M57.8462 18.0088C56.7097 18.0088 55.6453 17.9208 54.6528 17.7447C53.6764 17.5847 52.812 17.3045 52.0597 16.9044C51.3233 16.4882 50.7391 15.9199 50.3069 15.1996C49.8907 14.4633 49.6826 13.5429 49.6826 12.4384C49.6826 12.4064 49.6826 12.3663 49.6826 12.3183C49.6826 12.2543 49.6906 12.1903 49.7066 12.1262H54.7249C54.7088 12.1903 54.7008 12.2543 54.7008 12.3183C54.7008 12.3663 54.7008 12.4144 54.7008 12.4624C54.7008 12.9426 54.8129 13.3108 55.037 13.5669C55.2611 13.823 55.5732 13.9991 55.9734 14.0951C56.3896 14.1751 56.8538 14.2152 57.366 14.2152C57.5581 14.2152 57.7582 14.2152 57.9663 14.2152C58.1904 14.1991 58.3985 14.1751 58.5906 14.1431C58.7987 14.0951 58.9827 14.0311 59.1428 13.951C59.3189 13.871 59.455 13.767 59.551 13.6389C59.647 13.4948 59.6951 13.3188 59.6951 13.1107C59.6951 12.8065 59.559 12.5664 59.2869 12.3903C59.0148 12.2143 58.6466 12.0622 58.1824 11.9341C57.7182 11.8061 57.198 11.686 56.6217 11.574C56.0454 11.4619 55.4452 11.3339 54.8209 11.1898C54.1966 11.0297 53.5964 10.8297 53.0201 10.5895C52.4438 10.3494 51.9236 10.0453 51.4594 9.67714C50.9952 9.29297 50.627 8.82076 50.3549 8.26051C50.0828 7.68426 49.9467 6.99595 49.9467 6.1956C49.9467 5.23517 50.1468 4.41881 50.547 3.74651C50.9472 3.07421 51.4914 2.52997 52.1797 2.11379C52.884 1.6976 53.6764 1.39347 54.5568 1.20138C55.4532 1.0093 56.3896 0.913254 57.366 0.913254C58.3585 0.913254 59.2869 1.0173 60.1513 1.22539C61.0317 1.41748 61.808 1.72161 62.4803 2.1378C63.1526 2.55398 63.6808 3.08222 64.065 3.7225C64.4492 4.36278 64.6493 5.12312 64.6653 6.00351V6.29164H59.6951V6.1956C59.6951 5.90747 59.623 5.63535 59.479 5.37924C59.3349 5.12312 59.1028 4.91503 58.7827 4.75496C58.4785 4.59489 58.0703 4.51485 57.5581 4.51485C57.0779 4.51485 56.6697 4.56287 56.3336 4.65892C56.0134 4.75496 55.7733 4.89102 55.6132 5.0671C55.4532 5.22717 55.3731 5.40325 55.3731 5.59533C55.3731 5.89947 55.5092 6.14758 55.7813 6.33966C56.0534 6.53175 56.4216 6.69182 56.8858 6.81987C57.35 6.94793 57.8702 7.06799 58.4465 7.18004C59.0228 7.29208 59.623 7.42014 60.2473 7.56421C60.8716 7.69226 61.4718 7.86834 62.0481 8.09244C62.6244 8.31654 63.1446 8.61267 63.6088 8.98083C64.073 9.33299 64.4412 9.77319 64.7133 10.3014C64.9854 10.8297 65.1215 11.4779 65.1215 12.2463C65.1215 13.6069 64.8013 14.7114 64.161 15.5598C63.5368 16.4081 62.6724 17.0324 61.5679 17.4326C60.4794 17.8168 59.2389 18.0088 57.8462 18.0088Z" fill="white"/>
<path d="M73.9737 18.0088C72.5331 18.0088 71.2765 17.7687 70.204 17.2885C69.1476 16.7923 68.3232 16.056 67.7309 15.0795C67.1387 14.0871 66.8425 12.8546 66.8425 11.3819C66.8425 9.89324 67.1387 8.66069 67.7309 7.68426C68.3232 6.69182 69.1476 5.95549 70.204 5.47528C71.2765 4.97906 72.5331 4.73095 73.9737 4.73095C74.9341 4.73095 75.8385 4.83499 76.6869 5.04309C77.5353 5.25118 78.2796 5.57132 78.9199 6.00351C79.5602 6.4357 80.0564 6.99595 80.4086 7.68426C80.7767 8.37256 80.9608 9.19693 80.9608 10.1574H76.3267C76.3267 9.66114 76.2307 9.25295 76.0386 8.93281C75.8625 8.61267 75.5984 8.38057 75.2463 8.2365C74.8941 8.07643 74.4699 7.9964 73.9737 7.9964C73.4135 7.9964 72.9573 8.10845 72.6051 8.33255C72.2689 8.54064 72.0208 8.85278 71.8608 9.26896C71.7007 9.66914 71.6207 10.1494 71.6207 10.7096V12.0782C71.6207 12.6385 71.7007 13.1187 71.8608 13.5188C72.0368 13.919 72.301 14.2312 72.6531 14.4553C73.0213 14.6634 73.4935 14.7674 74.0697 14.7674C74.598 14.7674 75.0382 14.6954 75.3903 14.5513C75.7585 14.3912 76.0386 14.1511 76.2307 13.831C76.4228 13.4948 76.5188 13.0706 76.5188 12.5584H80.9608C80.9608 13.5188 80.7767 14.3512 80.4086 15.0555C80.0564 15.7438 79.5602 16.3041 78.9199 16.7363C78.2796 17.1685 77.5353 17.4886 76.6869 17.6967C75.8385 17.9048 74.9341 18.0088 73.9737 18.0088Z" fill="white"/>
<path d="M87.1794 18.0088C86.5231 18.0088 85.9228 17.9448 85.3786 17.8168C84.8343 17.7047 84.3621 17.5126 83.9619 17.2405C83.5618 16.9524 83.2496 16.5842 83.0255 16.136C82.8174 15.6718 82.7134 15.1116 82.7134 14.4553C82.7134 13.5108 82.9055 12.7425 83.2896 12.1502C83.6898 11.558 84.2661 11.1018 85.0184 10.7816C85.7707 10.4615 86.6832 10.2454 87.7556 10.1333C88.8441 10.0053 90.0847 9.94126 91.4773 9.94126V9.31698C91.4773 8.96483 91.3892 8.6847 91.2132 8.47661C91.0531 8.25251 90.837 8.08444 90.5649 7.97239C90.2928 7.86034 89.9806 7.80431 89.6285 7.80431C89.3563 7.80431 89.0762 7.83633 88.7881 7.90035C88.5 7.96438 88.2599 8.07643 88.0678 8.2365C87.8917 8.39657 87.8037 8.62067 87.8037 8.9088V9.00484H83.0976C83.0816 8.94082 83.0736 8.88479 83.0736 8.83677C83.0736 8.78875 83.0736 8.73272 83.0736 8.6687C83.0736 7.88435 83.3217 7.20405 83.8179 6.62779C84.3301 6.03553 85.0744 5.57932 86.0509 5.25918C87.0433 4.92303 88.2599 4.75496 89.7005 4.75496C90.869 4.75496 91.9495 4.88302 92.9419 5.13913C93.9344 5.39524 94.7347 5.82744 95.343 6.4357C95.9513 7.02797 96.2554 7.84433 96.2554 8.88479V13.831C96.2554 14.0871 96.3194 14.3112 96.4475 14.5033C96.5755 14.6794 96.7676 14.7674 97.0237 14.7674H97.8881V17.5286C97.696 17.6407 97.3759 17.7447 96.9277 17.8408C96.4955 17.9528 95.9833 18.0088 95.391 18.0088C94.7507 18.0088 94.1905 17.9448 93.7103 17.8168C93.2301 17.6887 92.8379 17.5046 92.5337 17.2645C92.2456 17.0244 92.0455 16.7443 91.9335 16.4241H91.7654C91.4293 16.7283 91.0371 17.0004 90.5889 17.2405C90.1567 17.4806 89.6605 17.6647 89.1002 17.7927C88.54 17.9368 87.8997 18.0088 87.1794 18.0088ZM89.1242 15.0315C89.4284 15.0315 89.7165 14.9915 89.9886 14.9115C90.2767 14.8154 90.5329 14.6954 90.757 14.5513C90.9811 14.3912 91.1571 14.2072 91.2852 13.9991C91.4133 13.775 91.4773 13.5349 91.4773 13.2787V12.1983C90.5329 12.1983 89.7645 12.2703 89.1723 12.4144C88.596 12.5584 88.1718 12.7505 87.8997 12.9906C87.6276 13.2307 87.4915 13.5108 87.4915 13.831C87.4915 14.1511 87.5715 14.3992 87.7316 14.5753C87.8917 14.7514 88.0918 14.8714 88.3319 14.9355C88.588 14.9995 88.8521 15.0315 89.1242 15.0315Z" fill="white"/>
<path d="M99.4486 17.7207V0.312988H104.227V17.7207H99.4486Z" fill="white"/>
<path d="M110.478 17.7207L105.675 5.04309H110.814L112.038 9.14891C112.118 9.37301 112.214 9.70916 112.326 10.1574C112.454 10.6056 112.591 11.0778 112.735 11.574C112.895 12.0702 113.031 12.5264 113.143 12.9426H113.311C113.423 12.5584 113.551 12.1262 113.695 11.646C113.839 11.1498 113.975 10.6776 114.103 10.2294C114.231 9.78119 114.335 9.42103 114.415 9.14891L115.64 5.04309H120.346L115.496 17.7207H110.478Z" fill="white"/>
<path d="M128.349 18.0088C126.909 18.0088 125.652 17.7687 124.58 17.2885C123.523 16.7923 122.699 16.056 122.107 15.0795C121.514 14.0871 121.218 12.8546 121.218 11.3819C121.218 9.89324 121.514 8.66069 122.107 7.68426C122.699 6.70783 123.523 5.9795 124.58 5.49929C125.652 5.00307 126.909 4.75496 128.349 4.75496C129.79 4.75496 131.047 5.00307 132.119 5.49929C133.192 5.9795 134.024 6.70783 134.616 7.68426C135.208 8.66069 135.505 9.89324 135.505 11.3819C135.505 12.8546 135.208 14.0871 134.616 15.0795C134.024 16.056 133.192 16.7923 132.119 17.2885C131.047 17.7687 129.79 18.0088 128.349 18.0088ZM128.349 14.7674C128.91 14.7674 129.366 14.6634 129.718 14.4553C130.07 14.2312 130.326 13.919 130.486 13.5188C130.646 13.1187 130.726 12.6385 130.726 12.0782V10.7096C130.726 10.1494 130.646 9.66914 130.486 9.26896C130.326 8.85278 130.07 8.54064 129.718 8.33255C129.366 8.10845 128.91 7.9964 128.349 7.9964C127.789 7.9964 127.333 8.10845 126.981 8.33255C126.645 8.54064 126.397 8.85278 126.236 9.26896C126.076 9.66914 125.996 10.1494 125.996 10.7096V12.0782C125.996 12.6385 126.076 13.1187 126.236 13.5188C126.397 13.919 126.645 14.2312 126.981 14.4553C127.333 14.6634 127.789 14.7674 128.349 14.7674Z" fill="white"/>
<path d="M137.809 17.7207V5.04309H141.723L142.035 6.96394H142.203C142.539 6.46772 142.932 6.05954 143.38 5.7394C143.828 5.40325 144.324 5.15514 144.869 4.99507C145.413 4.83499 145.973 4.75496 146.549 4.75496C147.558 4.75496 148.382 4.94704 149.022 5.33121C149.679 5.69938 150.167 6.23562 150.487 6.93993C150.807 7.64424 150.967 8.50062 150.967 9.50907V17.7207H146.189V10.0853C146.189 9.8132 146.149 9.5731 146.069 9.365C146.005 9.14091 145.909 8.94882 145.781 8.78875C145.653 8.62868 145.485 8.50862 145.277 8.42859C145.085 8.33255 144.853 8.28453 144.58 8.28453C144.18 8.28453 143.828 8.38057 143.524 8.57265C143.236 8.74873 143.004 8.98884 142.828 9.29297C142.668 9.5811 142.588 9.90925 142.588 10.2774V17.7207H137.809Z" fill="white"/>
<path d="M153.824 3.55443V0.312988H158.602V3.55443H153.824ZM153.824 17.7207V5.04309H158.602V17.7207H153.824Z" fill="white"/>
<path d="M48.7939 44.3988L55.2528 27.9275H58.6863L65.1692 44.3988H62.2879L60.8233 40.5811H53.0198L51.5552 44.3988H48.7939ZM53.8842 38.3001H59.9349L58.0861 33.4739C58.038 33.3299 57.966 33.1298 57.87 32.8737C57.7739 32.6175 57.6699 32.3374 57.5578 32.0333C57.4618 31.7291 57.3577 31.425 57.2457 31.1209C57.1497 30.8007 57.0616 30.5126 56.9816 30.2565H56.8375C56.7415 30.5606 56.6214 30.9208 56.4774 31.337C56.3333 31.7532 56.1892 32.1533 56.0452 32.5375C55.9171 32.9217 55.8051 33.2338 55.709 33.4739L53.8842 38.3001Z" fill="white"/>
<path d="M66.9535 44.3988V31.7692H69.0184L69.2345 33.8101H69.3786C69.5226 33.4099 69.7067 33.0337 69.9308 32.6816C70.1709 32.3294 70.4751 32.0413 70.8432 31.8172C71.2274 31.5931 71.6916 31.481 72.2358 31.481C72.492 31.481 72.7161 31.505 72.9081 31.5531C73.1162 31.6011 73.2763 31.6411 73.3884 31.6731V34.0262H72.548C72.0358 34.0262 71.5796 34.1062 71.1794 34.2663C70.7952 34.4263 70.4671 34.6664 70.1949 34.9866C69.9388 35.2907 69.7467 35.6669 69.6187 36.1151C69.5066 36.5633 69.4506 37.0675 69.4506 37.6278V44.3988H66.9535Z" fill="white"/>
<path d="M80.0378 44.6869C78.7732 44.6869 77.7168 44.4548 76.8684 43.9906C76.02 43.5104 75.3797 42.782 74.9475 41.8056C74.5314 40.8292 74.3233 39.5886 74.3233 38.084C74.3233 36.5793 74.5394 35.3467 74.9716 34.3863C75.4038 33.4099 76.044 32.6816 76.8924 32.2014C77.7568 31.7211 78.8133 31.481 80.0618 31.481C80.9262 31.481 81.6785 31.5931 82.3188 31.8172C82.9591 32.0253 83.5033 32.3454 83.9515 32.7776C84.3997 33.1938 84.7279 33.714 84.936 34.3383C85.1601 34.9626 85.2721 35.6749 85.2721 36.4753H82.751C82.751 35.803 82.655 35.2507 82.4629 34.8185C82.2708 34.3863 81.9747 34.0662 81.5745 33.8581C81.1743 33.634 80.6541 33.5219 80.0138 33.5219C79.3415 33.5219 78.7732 33.682 78.309 34.0022C77.8448 34.3063 77.4927 34.7785 77.2526 35.4188C77.0125 36.0431 76.8924 36.8674 76.8924 37.8919V38.3001C76.8924 39.2765 77.0045 40.0929 77.2286 40.7491C77.4687 41.3894 77.8208 41.8696 78.285 42.1898C78.7652 42.4939 79.3735 42.646 80.1098 42.646C80.7501 42.646 81.2623 42.5339 81.6465 42.3098C82.0467 42.0697 82.3428 41.7336 82.5349 41.3014C82.743 40.8532 82.8471 40.317 82.8471 39.6927H85.2721C85.2721 40.445 85.1601 41.1253 84.936 41.7336C84.7279 42.3419 84.3997 42.8701 83.9515 43.3183C83.5194 43.7505 82.9751 44.0866 82.3188 44.3267C81.6625 44.5668 80.9022 44.6869 80.0378 44.6869Z" fill="white"/>
<path d="M87.7987 44.3988V27.0391H90.2958V33.2818H90.4639C90.768 32.8977 91.1122 32.5775 91.4963 32.3214C91.8805 32.0493 92.3127 31.8412 92.7929 31.6971C93.2731 31.5531 93.8013 31.481 94.3776 31.481C95.178 31.481 95.8823 31.6251 96.4905 31.9132C97.0988 32.1853 97.571 32.6335 97.9072 33.2578C98.2593 33.8821 98.4354 34.7225 98.4354 35.7789V44.3988H95.9383V36.1631C95.9383 35.6829 95.8743 35.2827 95.7462 34.9626C95.6342 34.6424 95.4661 34.3863 95.242 34.1942C95.0179 34.0022 94.7538 33.8661 94.4496 33.7861C94.1455 33.706 93.8094 33.666 93.4412 33.666C92.8649 33.666 92.3367 33.8021 91.8565 34.0742C91.3923 34.3463 91.0161 34.7305 90.728 35.2267C90.4399 35.7229 90.2958 36.3152 90.2958 37.0035V44.3988H87.7987Z" fill="white"/>
<path d="M101.563 29.5842V27.0391H104.06V29.5842H101.563ZM101.563 44.3988V31.7692H104.06V44.3988H101.563Z" fill="white"/>
<path d="M110.429 44.6869C109.709 44.6869 109.141 44.5508 108.725 44.2787C108.324 43.9906 108.036 43.6304 107.86 43.1982C107.7 42.75 107.62 42.2778 107.62 41.7816V33.8341H106.035V31.7692H107.668L108.124 28.2396H110.117V31.7692H112.398V33.8341H110.117V41.4935C110.117 41.8616 110.197 42.1418 110.357 42.3338C110.517 42.5259 110.781 42.622 111.15 42.622H112.398V44.3027C112.238 44.3668 112.038 44.4228 111.798 44.4708C111.574 44.5348 111.342 44.5828 111.102 44.6149C110.861 44.6629 110.637 44.6869 110.429 44.6869Z" fill="white"/>
<path d="M119.834 44.6869C118.537 44.6869 117.449 44.4548 116.569 43.9906C115.704 43.5104 115.048 42.782 114.6 41.8056C114.151 40.8292 113.927 39.5886 113.927 38.084C113.927 36.5633 114.151 35.3227 114.6 34.3623C115.048 33.3859 115.712 32.6656 116.593 32.2014C117.473 31.7211 118.569 31.481 119.882 31.481C121.083 31.481 122.083 31.7131 122.883 32.1773C123.7 32.6255 124.316 33.3138 124.732 34.2423C125.148 35.1707 125.356 36.3392 125.356 37.7478V38.7082H116.496C116.528 39.6046 116.665 40.357 116.905 40.9652C117.145 41.5575 117.505 41.9977 117.985 42.2858C118.481 42.5579 119.106 42.694 119.858 42.694C120.322 42.694 120.738 42.638 121.107 42.5259C121.475 42.3979 121.787 42.2218 122.043 41.9977C122.299 41.7576 122.499 41.4775 122.643 41.1573C122.787 40.8212 122.859 40.445 122.859 40.0288H125.308C125.308 40.7812 125.18 41.4455 124.924 42.0217C124.668 42.598 124.292 43.0862 123.796 43.4864C123.316 43.8705 122.739 44.1667 122.067 44.3748C121.395 44.5828 120.65 44.6869 119.834 44.6869ZM116.545 36.8834H122.739C122.739 36.2592 122.667 35.7389 122.523 35.3227C122.395 34.8905 122.203 34.5384 121.947 34.2663C121.691 33.9941 121.387 33.8021 121.034 33.69C120.682 33.562 120.282 33.4979 119.834 33.4979C119.162 33.4979 118.585 33.618 118.105 33.8581C117.641 34.0982 117.281 34.4744 117.025 34.9866C116.769 35.4828 116.609 36.1151 116.545 36.8834Z" fill="white"/>
<path d="M132.913 44.6869C131.648 44.6869 130.592 44.4548 129.743 43.9906C128.895 43.5104 128.255 42.782 127.823 41.8056C127.406 40.8292 127.198 39.5886 127.198 38.084C127.198 36.5793 127.414 35.3467 127.847 34.3863C128.279 33.4099 128.919 32.6816 129.767 32.2014C130.632 31.7211 131.688 31.481 132.937 31.481C133.801 31.481 134.554 31.5931 135.194 31.8172C135.834 32.0253 136.378 32.3454 136.827 32.7776C137.275 33.1938 137.603 33.714 137.811 34.3383C138.035 34.9626 138.147 35.6749 138.147 36.4753H135.626C135.626 35.803 135.53 35.2507 135.338 34.8185C135.146 34.3863 134.85 34.0662 134.45 33.8581C134.049 33.634 133.529 33.5219 132.889 33.5219C132.217 33.5219 131.648 33.682 131.184 34.0022C130.72 34.3063 130.368 34.7785 130.128 35.4188C129.887 36.0431 129.767 36.8674 129.767 37.8919V38.3001C129.767 39.2765 129.879 40.0929 130.104 40.7491C130.344 41.3894 130.696 41.8696 131.16 42.1898C131.64 42.4939 132.249 42.646 132.985 42.646C133.625 42.646 134.137 42.5339 134.522 42.3098C134.922 42.0697 135.218 41.7336 135.41 41.3014C135.618 40.8532 135.722 40.317 135.722 39.6927H138.147C138.147 40.445 138.035 41.1253 137.811 41.7336C137.603 42.3419 137.275 42.8701 136.827 43.3183C136.394 43.7505 135.85 44.0866 135.194 44.3267C134.538 44.5668 133.777 44.6869 132.913 44.6869Z" fill="white"/>
<path d="M143.819 44.6869C143.099 44.6869 142.531 44.5508 142.114 44.2787C141.714 43.9906 141.426 43.6304 141.25 43.1982C141.09 42.75 141.01 42.2778 141.01 41.7816V33.8341H139.425V31.7692H141.058L141.514 28.2396H143.507V31.7692H145.788V33.8341H143.507V41.4935C143.507 41.8616 143.587 42.1418 143.747 42.3338C143.907 42.5259 144.171 42.622 144.539 42.622H145.788V44.3027C145.628 44.3668 145.428 44.4228 145.188 44.4708C144.964 44.5348 144.732 44.5828 144.491 44.6149C144.251 44.6629 144.027 44.6869 143.819 44.6869Z" fill="white"/>
<path d="M151.951 44.6869C150.735 44.6869 149.75 44.3668 148.998 43.7265C148.246 43.0702 147.869 41.9577 147.869 40.389V31.7692H150.367V40.0048C150.367 40.485 150.423 40.8852 150.535 41.2053C150.663 41.5255 150.839 41.7816 151.063 41.9737C151.287 42.1658 151.551 42.3018 151.855 42.3819C152.159 42.4619 152.495 42.5019 152.864 42.5019C153.44 42.5019 153.96 42.3659 154.424 42.0937C154.905 41.8056 155.289 41.4134 155.577 40.9172C155.865 40.405 156.009 39.8207 156.009 39.1644V31.7692H158.506V44.3988H156.465L156.249 42.598H156.081C155.777 43.0622 155.417 43.4463 155.001 43.7505C154.584 44.0546 154.12 44.2867 153.608 44.4468C153.112 44.6069 152.559 44.6869 151.951 44.6869Z" fill="white"/>
<path d="M161.73 44.3988V31.7692H163.795L164.011 33.8101H164.155C164.299 33.4099 164.483 33.0337 164.707 32.6816C164.947 32.3294 165.251 32.0413 165.62 31.8172C166.004 31.5931 166.468 31.481 167.012 31.481C167.268 31.481 167.492 31.505 167.685 31.5531C167.893 31.6011 168.053 31.6411 168.165 31.6731V34.0262H167.324C166.812 34.0262 166.356 34.1062 165.956 34.2663C165.572 34.4263 165.243 34.6664 164.971 34.9866C164.715 35.2907 164.523 35.6669 164.395 36.1151C164.283 36.5633 164.227 37.0675 164.227 37.6278V44.3988H161.73Z" fill="white"/>
<path d="M175.03 44.6869C173.734 44.6869 172.645 44.4548 171.765 43.9906C170.9 43.5104 170.244 42.782 169.796 41.8056C169.348 40.8292 169.124 39.5886 169.124 38.084C169.124 36.5633 169.348 35.3227 169.796 34.3623C170.244 33.3859 170.909 32.6656 171.789 32.2014C172.669 31.7211 173.766 31.481 175.078 31.481C176.279 31.481 177.279 31.7131 178.08 32.1773C178.896 32.6255 179.512 33.3138 179.928 34.2423C180.345 35.1707 180.553 36.3392 180.553 37.7478V38.7082H171.693C171.725 39.6046 171.861 40.357 172.101 40.9652C172.341 41.5575 172.701 41.9977 173.182 42.2858C173.678 42.5579 174.302 42.694 175.054 42.694C175.519 42.694 175.935 42.638 176.303 42.5259C176.671 42.3979 176.983 42.2218 177.239 41.9977C177.495 41.7576 177.696 41.4775 177.84 41.1573C177.984 40.8212 178.056 40.445 178.056 40.0288H180.505C180.505 40.7812 180.377 41.4455 180.121 42.0217C179.864 42.598 179.488 43.0862 178.992 43.4864C178.512 43.8705 177.936 44.1667 177.263 44.3748C176.591 44.5828 175.847 44.6869 175.03 44.6869ZM171.741 36.8834H177.936C177.936 36.2592 177.864 35.7389 177.72 35.3227C177.591 34.8905 177.399 34.5384 177.143 34.2663C176.887 33.9941 176.583 33.8021 176.231 33.69C175.879 33.562 175.479 33.4979 175.03 33.4979C174.358 33.4979 173.782 33.618 173.302 33.8581C172.837 34.0982 172.477 34.4744 172.221 34.9866C171.965 35.4828 171.805 36.1151 171.741 36.8834Z" fill="white"/>
</svg>
