<svg width="180" height="45" viewBox="0 0 180 45" fill="none" xmlns="http://www.w3.org/2000/svg">
<path d="M22.1323 35.6032L0.776464 23.2666C0.427216 23.0727 0.000358105 23.3184 0.000358105 23.7192V32.5772C0.000358105 33.0815 0.271994 33.5341 0.698853 33.7928L18.7045 44.1896C19.1314 44.4353 19.6746 44.4353 20.1015 44.1896L24.8099 41.474V41.461L30.6307 38.0989V38.1119L34.9381 35.6291C38.4694 33.5859 38.6892 28.5169 35.2873 26.2668C35.2097 26.2151 35.145 26.1763 35.0674 26.1245L11.9136 12.7406C11.9007 12.7277 11.8748 12.7147 11.8618 12.7018C9.14547 11.1113 9.18428 7.18012 11.9136 5.60251L13.9961 4.39989C14.0867 6.21028 15.0827 7.86549 16.6737 8.77068L38.0296 21.0942C38.3788 21.2882 38.8057 21.0425 38.8057 20.6416L38.8057 11.7966C38.8057 11.2923 38.534 10.8397 38.1072 10.5811L20.1015 0.184277C19.6746 -0.0614256 19.1314 -0.0614256 18.7045 0.184277L16.622 1.38689L6.01518 7.50341L3.75154 8.8224C0.220255 10.8656 0.052097 15.9734 3.53164 18.133C3.59631 18.1718 3.67393 18.2235 3.7386 18.2623L26.9054 31.6333C26.9183 31.6463 26.9442 31.6592 26.9571 31.6721C29.6605 33.2626 29.6217 37.1937 26.9054 38.7585L24.8099 39.974C24.7064 38.1507 23.7104 36.5084 22.1323 35.6032Z" fill="#268FCA"/>
<path d="M57.2935 17.6959C56.157 17.6959 55.0925 17.6078 54.1001 17.4317C53.1237 17.2717 52.2593 16.9915 51.5069 16.5914C50.7706 16.1752 50.1864 15.6069 49.7542 14.8866C49.338 14.1503 49.1299 13.2299 49.1299 12.1254C49.1299 12.0934 49.1299 12.0533 49.1299 12.0053C49.1299 11.9413 49.1379 11.8773 49.1539 11.8132H54.1721C54.1561 11.8773 54.1481 11.9413 54.1481 12.0053C54.1481 12.0533 54.1481 12.1014 54.1481 12.1494C54.1481 12.6296 54.2602 12.9978 54.4843 13.2539C54.7084 13.51 55.0205 13.6861 55.4207 13.7821C55.8369 13.8622 56.3011 13.9022 56.8133 13.9022C57.0054 13.9022 57.2055 13.9022 57.4136 13.9022C57.6377 13.8862 57.8457 13.8622 58.0378 13.8301C58.2459 13.7821 58.43 13.7181 58.5901 13.6381C58.7662 13.558 58.9022 13.454 58.9983 13.3259C59.0943 13.1818 59.1423 13.0058 59.1423 12.7977C59.1423 12.4935 59.0063 12.2534 58.7341 12.0774C58.462 11.9013 58.0939 11.7492 57.6297 11.6212C57.1654 11.4931 56.6452 11.373 56.069 11.261C55.4927 11.1489 54.8924 11.0209 54.2682 10.8768C53.6439 10.7168 53.0436 10.5167 52.4674 10.2766C51.8911 10.0365 51.3709 9.73232 50.9067 9.36416C50.4425 8.97998 50.0743 8.50777 49.8022 7.94753C49.5301 7.37127 49.394 6.68296 49.394 5.88261C49.394 4.92218 49.5941 4.10582 49.9943 3.43352C50.3944 2.76123 50.9387 2.21698 51.627 1.8008C52.3313 1.38461 53.1237 1.08048 54.004 0.888394C54.9004 0.696309 55.8369 0.600266 56.8133 0.600266C57.8057 0.600266 58.7341 0.704312 59.5985 0.912404C60.4789 1.10449 61.2553 1.40862 61.9276 1.82481C62.5999 2.24099 63.1281 2.76923 63.5123 3.40951C63.8964 4.0498 64.0965 4.81013 64.1125 5.69052V5.97865H59.1423V5.88261C59.1423 5.59448 59.0703 5.32236 58.9262 5.06625C58.7822 4.81013 58.5501 4.60204 58.2299 4.44197C57.9258 4.2819 57.5176 4.20186 57.0054 4.20186C56.5252 4.20186 56.117 4.24989 55.7808 4.34593C55.4607 4.44197 55.2206 4.57803 55.0605 4.75411C54.9004 4.91418 54.8204 5.09026 54.8204 5.28234C54.8204 5.58648 54.9565 5.83459 55.2286 6.02667C55.5007 6.21876 55.8689 6.37883 56.3331 6.50689C56.7973 6.63494 57.3175 6.755 57.8938 6.86705C58.47 6.9791 59.0703 7.10715 59.6946 7.25122C60.3188 7.37927 60.9191 7.55535 61.4954 7.77945C62.0716 8.00355 62.5919 8.29968 63.0561 8.66785C63.5203 9.02 63.8884 9.4602 64.1606 9.98843C64.4327 10.5167 64.5687 11.165 64.5687 11.9333C64.5687 13.2939 64.2486 14.3984 63.6083 15.2468C62.984 16.0951 62.1196 16.7194 61.0152 17.1196C59.9267 17.5038 58.6861 17.6959 57.2935 17.6959Z" fill="black"/>
<path d="M73.421 17.6959C71.9803 17.6959 70.7238 17.4557 69.6513 16.9755C68.5948 16.4793 67.7705 15.743 67.1782 14.7666C66.5859 13.7741 66.2898 12.5416 66.2898 11.0689C66.2898 9.58025 66.5859 8.3477 67.1782 7.37127C67.7705 6.37883 68.5948 5.6425 69.6513 5.16229C70.7238 4.66607 71.9803 4.41796 73.421 4.41796C74.3814 4.41796 75.2858 4.52201 76.1342 4.7301C76.9825 4.93819 77.7269 5.25833 78.3672 5.69052C79.0075 6.12272 79.5037 6.68296 79.8558 7.37127C80.224 8.05958 80.4081 8.88394 80.4081 9.84437H75.774C75.774 9.34815 75.678 8.93997 75.4859 8.61982C75.3098 8.29968 75.0457 8.06758 74.6935 7.92352C74.3414 7.76344 73.9172 7.68341 73.421 7.68341C72.8607 7.68341 72.4045 7.79546 72.0524 8.01956C71.7162 8.22765 71.4681 8.53979 71.308 8.95597C71.148 9.35615 71.0679 9.83636 71.0679 10.3966V11.7652C71.0679 12.3255 71.148 12.8057 71.308 13.2059C71.4841 13.606 71.7482 13.9182 72.1004 14.1423C72.4685 14.3504 72.9408 14.4544 73.517 14.4544C74.0452 14.4544 74.4854 14.3824 74.8376 14.2383C75.2058 14.0782 75.4859 13.8381 75.678 13.518C75.8701 13.1818 75.9661 12.7577 75.9661 12.2454H80.4081C80.4081 13.2059 80.224 14.0382 79.8558 14.7425C79.5037 15.4308 79.0075 15.9911 78.3672 16.4233C77.7269 16.8555 76.9825 17.1756 76.1342 17.3837C75.2858 17.5918 74.3814 17.6959 73.421 17.6959Z" fill="black"/>
<path d="M86.6266 17.6959C85.9703 17.6959 85.3701 17.6318 84.8258 17.5038C84.2816 17.3917 83.8094 17.1996 83.4092 16.9275C83.009 16.6394 82.6969 16.2712 82.4728 15.823C82.2647 15.3588 82.1607 14.7986 82.1607 14.1423C82.1607 13.1979 82.3527 12.4295 82.7369 11.8373C83.1371 11.245 83.7133 10.7888 84.4657 10.4686C85.218 10.1485 86.1304 9.93241 87.2029 9.82036C88.2914 9.6923 89.5319 9.62827 90.9245 9.62827V9.00399C90.9245 8.65184 90.8365 8.37171 90.6604 8.16362C90.5004 7.93952 90.2843 7.77145 90.0121 7.6594C89.74 7.54735 89.4279 7.49132 89.0757 7.49132C88.8036 7.49132 88.5235 7.52334 88.2354 7.58737C87.9472 7.65139 87.7071 7.76344 87.515 7.92352C87.339 8.08359 87.2509 8.30769 87.2509 8.59581V8.69186H82.5448C82.5288 8.62783 82.5208 8.5718 82.5208 8.52378C82.5208 8.47576 82.5208 8.41974 82.5208 8.35571C82.5208 7.57136 82.7689 6.89106 83.2651 6.3148C83.7774 5.72254 84.5217 5.26634 85.4981 4.94619C86.4906 4.61005 87.7071 4.44197 89.1478 4.44197C90.3163 4.44197 91.3968 4.57003 92.3892 4.82614C93.3816 5.08225 94.182 5.51445 94.7903 6.12272C95.3985 6.71498 95.7027 7.53134 95.7027 8.5718V13.518C95.7027 13.7741 95.7667 13.9982 95.8948 14.1903C96.0228 14.3664 96.2149 14.4544 96.471 14.4544H97.3354V17.2156C97.1433 17.3277 96.8232 17.4317 96.375 17.5278C95.9428 17.6398 95.4305 17.6959 94.8383 17.6959C94.198 17.6959 93.6378 17.6318 93.1575 17.5038C92.6773 17.3757 92.2851 17.1916 91.981 16.9515C91.6929 16.7114 91.4928 16.4313 91.3808 16.1111H91.2127C90.8765 16.4153 90.4844 16.6874 90.0362 16.9275C89.604 17.1676 89.1077 17.3517 88.5475 17.4798C87.9872 17.6238 87.347 17.6959 86.6266 17.6959ZM88.5715 14.7185C88.8756 14.7185 89.1638 14.6785 89.4359 14.5985C89.724 14.5024 89.9801 14.3824 90.2042 14.2383C90.4283 14.0782 90.6044 13.8942 90.7325 13.6861C90.8605 13.462 90.9245 13.2219 90.9245 12.9658V11.8853C89.9801 11.8853 89.2118 11.9573 88.6195 12.1014C88.0433 12.2454 87.6191 12.4375 87.347 12.6776C87.0748 12.9177 86.9388 13.1979 86.9388 13.518C86.9388 13.8381 87.0188 14.0862 87.1789 14.2623C87.339 14.4384 87.539 14.5585 87.7792 14.6225C88.0353 14.6865 88.2994 14.7185 88.5715 14.7185Z" fill="black"/>
<path d="M98.8959 17.4077V0H103.674V17.4077H98.8959Z" fill="black"/>
<path d="M109.925 17.4077L105.123 4.7301H110.261L111.486 8.83592C111.566 9.06002 111.662 9.39617 111.774 9.84437C111.902 10.2926 112.038 10.7648 112.182 11.261C112.342 11.7572 112.478 12.2134 112.59 12.6296H112.758C112.87 12.2454 112.998 11.8132 113.142 11.333C113.286 10.8368 113.422 10.3646 113.55 9.9164C113.679 9.4682 113.783 9.10804 113.863 8.83592L115.087 4.7301H119.793L114.943 17.4077H109.925Z" fill="black"/>
<path d="M127.797 17.6959C126.356 17.6959 125.099 17.4557 124.027 16.9755C122.971 16.4793 122.146 15.743 121.554 14.7666C120.962 13.7741 120.665 12.5416 120.665 11.0689C120.665 9.58025 120.962 8.3477 121.554 7.37127C122.146 6.39484 122.971 5.66651 124.027 5.1863C125.099 4.69008 126.356 4.44197 127.797 4.44197C129.237 4.44197 130.494 4.69008 131.566 5.1863C132.639 5.66651 133.471 6.39484 134.063 7.37127C134.656 8.3477 134.952 9.58025 134.952 11.0689C134.952 12.5416 134.656 13.7741 134.063 14.7666C133.471 15.743 132.639 16.4793 131.566 16.9755C130.494 17.4557 129.237 17.6959 127.797 17.6959ZM127.797 14.4544C128.357 14.4544 128.813 14.3504 129.165 14.1423C129.517 13.9182 129.774 13.606 129.934 13.2059C130.094 12.8057 130.174 12.3255 130.174 11.7652V10.3966C130.174 9.83636 130.094 9.35615 129.934 8.95597C129.774 8.53979 129.517 8.22765 129.165 8.01956C128.813 7.79546 128.357 7.68341 127.797 7.68341C127.236 7.68341 126.78 7.79546 126.428 8.01956C126.092 8.22765 125.844 8.53979 125.684 8.95597C125.524 9.35615 125.444 9.83636 125.444 10.3966V11.7652C125.444 12.3255 125.524 12.8057 125.684 13.2059C125.844 13.606 126.092 13.9182 126.428 14.1423C126.78 14.3504 127.236 14.4544 127.797 14.4544Z" fill="black"/>
<path d="M137.257 17.4077V4.7301H141.17L141.483 6.65095H141.651C141.987 6.15473 142.379 5.74655 142.827 5.42641C143.275 5.09026 143.772 4.84215 144.316 4.68208C144.86 4.52201 145.42 4.44197 145.997 4.44197C147.005 4.44197 147.829 4.63406 148.47 5.01823C149.126 5.38639 149.614 5.92263 149.934 6.62694C150.254 7.33125 150.414 8.18763 150.414 9.19608V17.4077H145.636V9.77234C145.636 9.50022 145.596 9.26011 145.516 9.05202C145.452 8.82792 145.356 8.63583 145.228 8.47576C145.1 8.31569 144.932 8.19564 144.724 8.1156C144.532 8.01956 144.3 7.97154 144.028 7.97154C143.627 7.97154 143.275 8.06758 142.971 8.25966C142.683 8.43574 142.451 8.67585 142.275 8.97998C142.115 9.26811 142.035 9.59626 142.035 9.96442V17.4077H137.257Z" fill="black"/>
<path d="M153.272 3.24144V0H158.05V3.24144H153.272ZM153.272 17.4077V4.7301H158.05V17.4077H153.272Z" fill="black"/>
<path d="M48.2412 44.0863L54.7001 27.615H58.1336L64.6165 44.0863H61.7352L60.2705 40.2686H52.4671L51.0024 44.0863H48.2412ZM53.3315 37.9876H59.3822L57.5333 33.1614C57.4853 33.0174 57.4133 32.8173 57.3172 32.5612C57.2212 32.305 57.1171 32.0249 57.0051 31.7208C56.9091 31.4166 56.805 31.1125 56.693 30.8084C56.5969 30.4882 56.5089 30.2001 56.4288 29.944H56.2848C56.1887 30.2481 56.0687 30.6083 55.9246 31.0245C55.7806 31.4407 55.6365 31.8408 55.4924 32.225C55.3644 32.6092 55.2523 32.9213 55.1563 33.1614L53.3315 37.9876Z" fill="black"/>
<path d="M66.4008 44.0863V31.4567H68.4657L68.6818 33.4976H68.8258C68.9699 33.0974 69.154 32.7212 69.3781 32.3691C69.6182 32.0169 69.9223 31.7288 70.2905 31.5047C70.6747 31.2806 71.1389 31.1685 71.6831 31.1685C71.9392 31.1685 72.1633 31.1925 72.3554 31.2406C72.5635 31.2886 72.7236 31.3286 72.8356 31.3606V33.7137H71.9952C71.483 33.7137 71.0268 33.7937 70.6266 33.9538C70.2425 34.1138 69.9143 34.3539 69.6422 34.6741C69.3861 34.9782 69.194 35.3544 69.0659 35.8026C68.9539 36.2508 68.8979 36.755 68.8979 37.3153V44.0863H66.4008Z" fill="black"/>
<path d="M79.4851 44.3744C78.2205 44.3744 77.164 44.1423 76.3157 43.6781C75.4673 43.1979 74.827 42.4695 74.3948 41.4931C73.9786 40.5167 73.7705 39.2761 73.7705 37.7715C73.7705 36.2668 73.9866 35.0342 74.4188 34.0738C74.851 33.0974 75.4913 32.3691 76.3397 31.8889C77.2041 31.4086 78.2605 31.1685 79.5091 31.1685C80.3735 31.1685 81.1258 31.2806 81.7661 31.5047C82.4064 31.7128 82.9506 32.0329 83.3988 32.4651C83.847 32.8813 84.1752 33.4015 84.3832 34.0258C84.6073 34.6501 84.7194 35.3624 84.7194 36.1628H82.1983C82.1983 35.4905 82.1022 34.9382 81.9101 34.506C81.7181 34.0738 81.4219 33.7537 81.0218 33.5456C80.6216 33.3215 80.1013 33.2094 79.4611 33.2094C78.7888 33.2094 78.2205 33.3695 77.7563 33.6897C77.2921 33.9938 76.9399 34.466 76.6998 35.1063C76.4597 35.7306 76.3397 36.5549 76.3397 37.5794V37.9876C76.3397 38.964 76.4517 39.7804 76.6758 40.4366C76.9159 41.0769 77.2681 41.5571 77.7323 41.8773C78.2125 42.1814 78.8208 42.3335 79.5571 42.3335C80.1974 42.3335 80.7096 42.2214 81.0938 41.9973C81.494 41.7572 81.7901 41.4211 81.9822 40.9889C82.1903 40.5407 82.2943 40.0045 82.2943 39.3802H84.7194C84.7194 40.1325 84.6073 40.8128 84.3832 41.4211C84.1752 42.0294 83.847 42.5576 83.3988 43.0058C82.9666 43.438 82.4224 43.7741 81.7661 44.0142C81.1098 44.2543 80.3495 44.3744 79.4851 44.3744Z" fill="black"/>
<path d="M87.246 44.0863V26.7266H89.7431V32.9693H89.9111C90.2153 32.5852 90.5594 32.265 90.9436 32.0089C91.3278 31.7368 91.76 31.5287 92.2402 31.3846C92.7204 31.2406 93.2486 31.1685 93.8249 31.1685C94.6252 31.1685 95.3295 31.3126 95.9378 31.6007C96.5461 31.8728 97.0183 32.321 97.3544 32.9453C97.7066 33.5696 97.8827 34.41 97.8827 35.4664V44.0863H95.3856V35.8506C95.3856 35.3704 95.3215 34.9702 95.1935 34.6501C95.0814 34.3299 94.9134 34.0738 94.6893 33.8817C94.4652 33.6897 94.201 33.5536 93.8969 33.4736C93.5928 33.3935 93.2566 33.3535 92.8885 33.3535C92.3122 33.3535 91.784 33.4896 91.3038 33.7617C90.8395 34.0338 90.4634 34.418 90.1753 34.9142C89.8871 35.4104 89.7431 36.0027 89.7431 36.691V44.0863H87.246Z" fill="black"/>
<path d="M101.01 29.2717V26.7266H103.507V29.2717H101.01ZM101.01 44.0863V31.4567H103.507V44.0863H101.01Z" fill="black"/>
<path d="M109.877 44.3744C109.156 44.3744 108.588 44.2383 108.172 43.9662C107.772 43.6781 107.483 43.3179 107.307 42.8857C107.147 42.4375 107.067 41.9653 107.067 41.4691V33.5216H105.483V31.4567H107.115L107.572 27.9271H109.564V31.4567H111.845V33.5216H109.564V41.181C109.564 41.5491 109.644 41.8293 109.805 42.0214C109.965 42.2134 110.229 42.3095 110.597 42.3095H111.845V43.9902C111.685 44.0543 111.485 44.1103 111.245 44.1583C111.021 44.2223 110.789 44.2703 110.549 44.3024C110.309 44.3504 110.085 44.3744 109.877 44.3744Z" fill="black"/>
<path d="M119.281 44.3744C117.985 44.3744 116.896 44.1423 116.016 43.6781C115.151 43.1979 114.495 42.4695 114.047 41.4931C113.599 40.5167 113.375 39.2761 113.375 37.7715C113.375 36.2508 113.599 35.0102 114.047 34.0498C114.495 33.0734 115.159 32.3531 116.04 31.8889C116.92 31.4086 118.017 31.1685 119.329 31.1685C120.53 31.1685 121.53 31.4006 122.331 31.8648C123.147 32.313 123.763 33.0013 124.179 33.9298C124.596 34.8582 124.804 36.0267 124.804 37.4353V38.3957H115.944C115.976 39.2921 116.112 40.0445 116.352 40.6527C116.592 41.245 116.952 41.6852 117.432 41.9733C117.929 42.2454 118.553 42.3815 119.305 42.3815C119.769 42.3815 120.186 42.3255 120.554 42.2134C120.922 42.0854 121.234 41.9093 121.49 41.6852C121.746 41.4451 121.946 41.165 122.09 40.8448C122.235 40.5087 122.307 40.1325 122.307 39.7163H124.756C124.756 40.4687 124.628 41.133 124.371 41.7092C124.115 42.2855 123.739 42.7737 123.243 43.1739C122.763 43.558 122.187 43.8542 121.514 44.0623C120.842 44.2703 120.098 44.3744 119.281 44.3744ZM115.992 36.5709H122.187C122.187 35.9467 122.114 35.4264 121.97 35.0102C121.842 34.578 121.65 34.2259 121.394 33.9538C121.138 33.6816 120.834 33.4896 120.482 33.3775C120.13 33.2495 119.729 33.1854 119.281 33.1854C118.609 33.1854 118.033 33.3055 117.552 33.5456C117.088 33.7857 116.728 34.1619 116.472 34.6741C116.216 35.1703 116.056 35.8026 115.992 36.5709Z" fill="black"/>
<path d="M132.36 44.3744C131.096 44.3744 130.039 44.1423 129.191 43.6781C128.342 43.1979 127.702 42.4695 127.27 41.4931C126.854 40.5167 126.646 39.2761 126.646 37.7715C126.646 36.2668 126.862 35.0342 127.294 34.0738C127.726 33.0974 128.366 32.3691 129.215 31.8889C130.079 31.4086 131.136 31.1685 132.384 31.1685C133.248 31.1685 134.001 31.2806 134.641 31.5047C135.281 31.7128 135.826 32.0329 136.274 32.4651C136.722 32.8813 137.05 33.4015 137.258 34.0258C137.482 34.6501 137.594 35.3624 137.594 36.1628H135.073C135.073 35.4905 134.977 34.9382 134.785 34.506C134.593 34.0738 134.297 33.7537 133.897 33.5456C133.497 33.3215 132.976 33.2094 132.336 33.2094C131.664 33.2094 131.096 33.3695 130.631 33.6897C130.167 33.9938 129.815 34.466 129.575 35.1063C129.335 35.7306 129.215 36.5549 129.215 37.5794V37.9876C129.215 38.964 129.327 39.7804 129.551 40.4366C129.791 41.0769 130.143 41.5571 130.607 41.8773C131.088 42.1814 131.696 42.3335 132.432 42.3335C133.072 42.3335 133.585 42.2214 133.969 41.9973C134.369 41.7572 134.665 41.4211 134.857 40.9889C135.065 40.5407 135.169 40.0045 135.169 39.3802H137.594C137.594 40.1325 137.482 40.8128 137.258 41.4211C137.05 42.0294 136.722 42.5576 136.274 43.0058C135.842 43.438 135.297 43.7741 134.641 44.0142C133.985 44.2543 133.224 44.3744 132.36 44.3744Z" fill="black"/>
<path d="M143.266 44.3744C142.546 44.3744 141.978 44.2383 141.562 43.9662C141.161 43.6781 140.873 43.3179 140.697 42.8857C140.537 42.4375 140.457 41.9653 140.457 41.4691V33.5216H138.872V31.4567H140.505L140.961 27.9271H142.954V31.4567H145.235V33.5216H142.954V41.181C142.954 41.5491 143.034 41.8293 143.194 42.0214C143.354 42.2134 143.619 42.3095 143.987 42.3095H145.235V43.9902C145.075 44.0543 144.875 44.1103 144.635 44.1583C144.411 44.2223 144.179 44.2703 143.939 44.3024C143.699 44.3504 143.474 44.3744 143.266 44.3744Z" fill="black"/>
<path d="M151.398 44.3744C150.182 44.3744 149.197 44.0543 148.445 43.414C147.693 42.7577 147.317 41.6452 147.317 40.0765V31.4567H149.814V39.6923C149.814 40.1725 149.87 40.5727 149.982 40.8928C150.11 41.213 150.286 41.4691 150.51 41.6612C150.734 41.8533 150.998 41.9893 151.302 42.0694C151.607 42.1494 151.943 42.1894 152.311 42.1894C152.887 42.1894 153.407 42.0534 153.872 41.7812C154.352 41.4931 154.736 41.1009 155.024 40.6047C155.312 40.0925 155.456 39.5082 155.456 38.8519V31.4567H157.953V44.0863H155.912L155.696 42.2855H155.528C155.224 42.7497 154.864 43.1338 154.448 43.438C154.032 43.7421 153.567 43.9742 153.055 44.1343C152.559 44.2944 152.007 44.3744 151.398 44.3744Z" fill="black"/>
<path d="M161.177 44.0863V31.4567H163.242L163.458 33.4976H163.602C163.746 33.0974 163.93 32.7212 164.155 32.3691C164.395 32.0169 164.699 31.7288 165.067 31.5047C165.451 31.2806 165.915 31.1685 166.46 31.1685C166.716 31.1685 166.94 31.1925 167.132 31.2406C167.34 31.2886 167.5 31.3286 167.612 31.3606V33.7137H166.772C166.259 33.7137 165.803 33.7937 165.403 33.9538C165.019 34.1138 164.691 34.3539 164.419 34.6741C164.163 34.9782 163.97 35.3544 163.842 35.8026C163.73 36.2508 163.674 36.755 163.674 37.3153V44.0863H161.177Z" fill="black"/>
<path d="M174.478 44.3744C173.181 44.3744 172.093 44.1423 171.212 43.6781C170.348 43.1979 169.691 42.4695 169.243 41.4931C168.795 40.5167 168.571 39.2761 168.571 37.7715C168.571 36.2508 168.795 35.0102 169.243 34.0498C169.691 33.0734 170.356 32.3531 171.236 31.8889C172.117 31.4086 173.213 31.1685 174.526 31.1685C175.726 31.1685 176.727 31.4006 177.527 31.8648C178.343 32.313 178.96 33.0013 179.376 33.9298C179.792 34.8582 180 36.0267 180 37.4353V38.3957H171.14C171.172 39.2921 171.308 40.0445 171.548 40.6527C171.788 41.245 172.149 41.6852 172.629 41.9733C173.125 42.2454 173.749 42.3815 174.502 42.3815C174.966 42.3815 175.382 42.3255 175.75 42.2134C176.118 42.0854 176.43 41.9093 176.687 41.6852C176.943 41.4451 177.143 41.165 177.287 40.8448C177.431 40.5087 177.503 40.1325 177.503 39.7163H179.952C179.952 40.4687 179.824 41.133 179.568 41.7092C179.312 42.2855 178.936 42.7737 178.439 43.1739C177.959 43.558 177.383 43.8542 176.711 44.0623C176.038 44.2703 175.294 44.3744 174.478 44.3744ZM171.188 36.5709H177.383C177.383 35.9467 177.311 35.4264 177.167 35.0102C177.039 34.578 176.847 34.2259 176.591 33.9538C176.334 33.6816 176.03 33.4896 175.678 33.3775C175.326 33.2495 174.926 33.1854 174.478 33.1854C173.805 33.1854 173.229 33.3055 172.749 33.5456C172.285 33.7857 171.924 34.1619 171.668 34.6741C171.412 35.1703 171.252 35.8026 171.188 36.5709Z" fill="black"/>
</svg>
