<svg width="57" height="57" viewBox="0 0 57 57" fill="none" xmlns="http://www.w3.org/2000/svg">
<path d="M21.1975 30.6812L25.4316 34.914L25.4317 34.914C25.6534 35.1357 25.7779 35.4364 25.7779 35.75C25.7779 36.0635 25.6534 36.3642 25.4317 36.586C25.21 36.8077 24.9093 36.9322 24.5957 36.9322C24.2822 36.9322 23.9814 36.8077 23.7597 36.586L17.5101 30.3363L21.1975 30.6812ZM21.1975 30.6812H38.6582C38.9715 30.6812 39.2719 30.5568 39.4935 30.3353C39.715 30.1137 39.8395 29.8133 39.8395 29.5C39.8395 29.1867 39.715 28.8862 39.4935 28.6647C39.2719 28.4432 38.9715 28.3187 38.6582 28.3187H21.1975M21.1975 30.6812V28.3187M21.1975 28.3187L25.4316 24.086L25.4317 24.086C25.6534 23.8642 25.7779 23.5635 25.7779 23.25C25.7779 22.9364 25.6534 22.6357 25.4317 22.414C25.21 22.1923 24.9093 22.0678 24.5957 22.0678C24.2822 22.0678 23.9814 22.1923 23.7597 22.414L17.5101 28.6637L21.1975 28.3187ZM17.2533 29.0473C17.3127 28.9039 17.3999 28.7737 17.5097 28.664V30.336C17.3999 30.2263 17.3127 30.0961 17.2533 29.9527C17.1937 29.8092 17.1631 29.6554 17.1631 29.5C17.1631 29.3446 17.1937 29.1908 17.2533 29.0473Z" fill="white" stroke="white" stroke-width="0.8"/>
</svg>
