<svg width="57" height="57" viewBox="0 0 57 57" fill="none" xmlns="http://www.w3.org/2000/svg">
<rect width="57" height="57" fill="#0A72AD"/>
<path d="M35.8044 30.6812L31.5703 34.914L31.5703 34.914C31.3486 35.1357 31.224 35.4364 31.224 35.75C31.224 36.0635 31.3486 36.3642 31.5703 36.586C31.792 36.8077 32.0927 36.9322 32.4062 36.9322C32.7198 36.9322 33.0205 36.8077 33.2422 36.586L39.4919 30.3363L35.8044 30.6812ZM35.8044 30.6812H18.3438C18.0305 30.6812 17.73 30.5568 17.5085 30.3353C17.287 30.1137 17.1625 29.8133 17.1625 29.5C17.1625 29.1867 17.287 28.8862 17.5085 28.6647C17.73 28.4432 18.0305 28.3187 18.3438 28.3187H35.8044M35.8044 30.6812V28.3187M35.8044 28.3187L31.5703 24.086L31.5703 24.086C31.3486 23.8642 31.224 23.5635 31.224 23.25C31.224 22.9364 31.3486 22.6357 31.5703 22.414C31.792 22.1923 32.0927 22.0678 32.4062 22.0678C32.7198 22.0678 33.0205 22.1923 33.2422 22.414L39.4919 28.6637L35.8044 28.3187ZM39.7487 29.0473C39.6892 28.9039 39.6021 28.7737 39.4922 28.664V30.336C39.6021 30.2263 39.6892 30.0961 39.7487 29.9527C39.8082 29.8092 39.8389 29.6554 39.8389 29.5C39.8389 29.3446 39.8082 29.1908 39.7487 29.0473Z" fill="white" stroke="white" stroke-width="0.8"/>
</svg>
